<svg fill="#227950" class="uitk-icon uitk-icon-small uitk-icon-default-theme" aria-hidden="true" viewBox="0 0 24 24" xmlns="http://www.w3.org/2000/svg" xmlns:xlink="http://www.w3.org/1999/xlink"><path d="M5 4a1 1 0 0 0-1 1v4H2V5a3 3 0 0 1 3-3h4v2H5zm15 1a1 1 0 0 0-1-1h-4V2h4a3 3 0 0 1 3 3v4h-2V5zm0 14a1 1 0 0 1-1 1h-4v2h4a3 3 0 0 0 3-3v-4h-2v4zM4 19a1 1 0 0 0 1 1h4v2H5a3 3 0 0 1-3-3v-4h2v4z"></path><path d="M12 8h2.586L8 14.586V12H6v5a1 1 0 0 0 1 1h5v-2H9.414L16 9.414V12h2V7a1 1 0 0 0-1-1h-5v2z"></path></svg>