<svg fill="#227950" class="uitk-icon uitk-icon-small uitk-icon-default-theme" aria-hidden="true" viewBox="0 0 24 24" xmlns="http://www.w3.org/2000/svg" xmlns:xlink="http://www.w3.org/1999/xlink"><path fill-rule="evenodd" d="M2.5 20a.5.5 0 0 0 .5-.5V17h18v2.5a.5.5 0 0 0 .5.5h1a.5.5 0 0 0 .5-.5V11a4 4 0 0 0-4-4h-7a1 1 0 0 0-1 1v7H3V5.5a.5.5 0 0 0-.5-.5h-1a.5.5 0 0 0-.5.5v14a.5.5 0 0 0 .5.5h1zM13 15h8v-4a2 2 0 0 0-2-2h-6v6z" clip-rule="evenodd"></path><path fill-rule="evenodd" d="M7 8a3 3 0 1 0 0 6 3 3 0 0 0 0-6zm-1 3a1 1 0 1 1 2 0 1 1 0 0 1-2 0z" clip-rule="evenodd"></path></svg>