<svg class="uitk-icon uitk-spacing uitk-spacing-padding-inlineend-one uitk-layout-flex-item" aria-hidden="true" viewBox="0 0 24 24" xmlns="http://www.w3.org/2000/svg" xmlns:xlink="http://www.w3.org/1999/xlink"><path d="M6.5 10a.5.5 0 0 1 .5.5v1a.5.5 0 0 1-.5.5h-1a.5.5 0 0 1-.5-.5v-1a.5.5 0 0 1 .5-.5h1zM7 6.5a.5.5 0 0 0-.5-.5h-1a.5.5 0 0 0-.5.5v1a.5.5 0 0 0 .5.5h1a.5.5 0 0 0 .5-.5v-1zm3.5 3.5a.5.5 0 0 1 .5.5v1a.5.5 0 0 1-.5.5h-1a.5.5 0 0 1-.5-.5v-1a.5.5 0 0 1 .5-.5h1zm.5-3.5a.5.5 0 0 0-.5-.5h-1a.5.5 0 0 0-.5.5v1a.5.5 0 0 0 .5.5h1a.5.5 0 0 0 .5-.5v-1z"></path><path fill-rule="evenodd" d="M1 5a3 3 0 0 1 3-3h8a3 3 0 0 1 3 3v14h5.5a.5.5 0 0 0 .5-.5V9a1 1 0 0 0-1-1h-2.5a.5.5 0 0 1-.5-.5v-1a.5.5 0 0 1 .5-.5H20a3 3 0 0 1 3 3v11a1 1 0 0 1-1 1H2a1 1 0 0 1-1-1V5zm3-1a1 1 0 0 0-1 1v14h2v-4a1 1 0 0 1 1-1h4a1 1 0 0 1 1 1v4h2V5a1 1 0 0 0-1-1H4zm5 12v3H7v-3h2z" clip-rule="evenodd"></path><path d="M19 10.5a.5.5 0 0 0-.5-.5h-1a.5.5 0 0 0-.5.5v1a.5.5 0 0 0 .5.5h1a.5.5 0 0 0 .5-.5v-1zm-.5 3.5a.5.5 0 0 1 .5.5v1a.5.5 0 0 1-.5.5h-1a.5.5 0 0 1-.5-.5v-1a.5.5 0 0 1 .5-.5h1z"></path></svg>