<svg fill="#227950" class="uitk-icon uitk-icon-default-theme" aria-hidden="true" viewBox="0 0 24 24" xmlns="http://www.w3.org/2000/svg" xmlns:xlink="http://www.w3.org/1999/xlink"><path d="M4.586 7.615a.805.805 0 0 1 .828 0l1.643.985a2.805 2.805 0 0 0 2.886 0l1.643-.985a.805.805 0 0 1 .828 0l1.643.985a2.805 2.805 0 0 0 2.886 0l1.643-.985a.805.805 0 0 1 .828 0l1.214.728a4.61 4.61 0 0 0 1.873.63c.275.03.5-.197.5-.473v-1c0-.276-.227-.495-.498-.548a2.61 2.61 0 0 1-.846-.324L20.443 5.9a2.806 2.806 0 0 0-2.886 0l-1.643.985a.805.805 0 0 1-.828 0L13.443 5.9a2.806 2.806 0 0 0-2.886 0l-1.643.985a.805.805 0 0 1-.828 0L6.443 5.9a2.805 2.805 0 0 0-2.886 0l-1.214.728a2.61 2.61 0 0 1-.846.324C1.226 7.005 1 7.224 1 7.5v1c0 .276.225.503.5.473a4.61 4.61 0 0 0 1.872-.63l1.214-.728zM5 12c-.146 0-.29.04-.414.115l-1.214.728a4.61 4.61 0 0 1-1.873.63C1.225 13.503 1 13.276 1 13v-1c0-.276.226-.495.497-.548.297-.057.584-.167.846-.324l1.214-.728a2.805 2.805 0 0 1 2.886 0l1.643.985a.806.806 0 0 0 .828 0l1.643-.985a2.805 2.805 0 0 1 2.886 0l1.643.985a.806.806 0 0 0 .828 0l1.643-.985a2.805 2.805 0 0 1 2.886 0l1.214.728c.262.157.549.267.846.324.271.053.497.272.497.548v1c0 .276-.224.503-.499.473a4.61 4.61 0 0 1-1.873-.63l-1.214-.728a.806.806 0 0 0-.828 0l-1.643.985a2.805 2.805 0 0 1-2.886 0l-1.643-.985a.806.806 0 0 0-.828 0l-1.643.985a2.805 2.805 0 0 1-2.886 0l-1.643-.985A.806.806 0 0 0 5 12zm0 4.5c-.146 0-.29.04-.414.115l-1.214.728a4.61 4.61 0 0 1-1.873.63c-.274.03-.499-.197-.499-.473v-1c0-.276.226-.495.497-.548.297-.057.584-.167.846-.324l1.214-.728a2.805 2.805 0 0 1 2.886 0l1.643.985a.806.806 0 0 0 .828 0l1.643-.985a2.805 2.805 0 0 1 2.886 0l1.643.985a.806.806 0 0 0 .828 0l1.643-.985a2.805 2.805 0 0 1 2.886 0l1.214.728c.262.157.549.267.846.324.271.053.497.272.497.548v1c0 .276-.224.503-.499.473a4.61 4.61 0 0 1-1.873-.63l-1.214-.728a.806.806 0 0 0-.828 0l-1.643.985a2.805 2.805 0 0 1-2.886 0l-1.643-.985a.806.806 0 0 0-.828 0l-1.643.985a2.805 2.805 0 0 1-2.886 0l-1.643-.985A.806.806 0 0 0 5 16.5z"></path></svg>