<svg fill="#227950" class="uitk-icon uitk-icon-positive-theme" aria-hidden="true" viewBox="0 0 24 24" xmlns="http://www.w3.org/2000/svg" xmlns:xlink="http://www.w3.org/1999/xlink"><path fill-rule="evenodd" d="M10 14h2.5a3.5 3.5 0 1 0 0-7H8v9.5a.5.5 0 0 0 .5.5h1a.5.5 0 0 0 .5-.5V14zm0-2V9h2.5a1.5 1.5 0 0 1 0 3H10z" clip-rule="evenodd"></path><path fill-rule="evenodd" d="M3 6a3 3 0 0 1 3-3h12a3 3 0 0 1 3 3v12a3 3 0 0 1-3 3H6a3 3 0 0 1-3-3V6zm3-1a1 1 0 0 0-1 1v12a1 1 0 0 0 1 1h12a1 1 0 0 0 1-1V6a1 1 0 0 0-1-1H6z" clip-rule="evenodd"></path></svg>