<svg fill="#227950" class="uitk-icon uitk-icon-small uitk-icon-default-theme" aria-hidden="true" viewBox="0 0 24 24" xmlns="http://www.w3.org/2000/svg" xmlns:xlink="http://www.w3.org/1999/xlink"><path fill-rule="evenodd" d="M17 3a4 4 0 1 0 0 8 4 4 0 0 0 0-8zm-2 4a2 2 0 1 1 4 0 2 2 0 0 1-4 0z" clip-rule="evenodd"></path><path d="M14.16 14.426c.162.325.605.417.904.21.59-.41 1.258-.636 1.936-.636 1.805 0 3.538 1.604 3.922 4H15.5a.5.5 0 0 0-.5.5v1a.5.5 0 0 0 .5.5h7a.5.5 0 0 0 .5-.5V19c0-3.688-2.523-7-6-7a5.34 5.34 0 0 0-3.15 1.03c-.212.153-.245.448-.104.668.15.235.288.478.413.728z"></path><path fill-rule="evenodd" d="M1 19c0-3.688 2.523-7 6-7s6 3.313 6 7a1 1 0 0 1-1 1H2a1 1 0 0 1-1-1zm2.078-1h7.844c-.383-2.396-2.117-4-3.922-4-1.805 0-3.539 1.604-3.922 4zM7 3a4 4 0 1 0 0 8 4 4 0 0 0 0-8zM5 7a2 2 0 1 1 4 0 2 2 0 0 1-4 0z" clip-rule="evenodd"></path></svg>