<svg fill="#E61E43" class="uitk-icon favorite-button-border favorite-button-border-pill favorite-button-border-color-highlighed" aria-hidden="true" viewBox="0 0 24 24" xmlns="http://www.w3.org/2000/svg" xmlns:xlink="http://www.w3.org/1999/xlink"><path fill-rule="evenodd" d="M13.356 3.871c3.906-2.379 8.601.407 8.644 4.817.027 2.844-1.367 5.433-3.346 7.483-1.808 1.873-4.08 3.416-6.12 4.682a1 1 0 0 1-1.052.001c-2.061-1.271-4.32-2.803-6.117-4.668C3.399 14.146 2.015 11.56 2 8.688c-.023-4.448 4.819-7.164 8.644-4.83.537.327.991.743 1.356 1.142a6.39 6.39 0 0 1 1.356-1.129zM20 8.708c-.028-2.912-3.067-4.673-5.604-3.128-.408.248-.754.602-1.151 1.065a1 1 0 0 1-.76.349h-.961a1 1 0 0 1-.76-.35c-.401-.47-.75-.828-1.162-1.08C7.098 4.038 3.985 5.815 4 8.679c.011 2.214 1.081 4.33 2.805 6.12 1.477 1.533 3.343 2.855 5.2 4.026 1.844-1.169 3.722-2.502 5.21-4.042C18.96 12.975 20.02 10.865 20 8.708z" clipRule="evenodd"></path></svg>