<svg class="uitk-icon uitk-icon-leading uitk-icon-small" aria-describedby="share-description" aria-label="공유 버튼" role="img" viewBox="0 0 24 24" xmlns="http://www.w3.org/2000/svg" xmlns:xlink="http://www.w3.org/1999/xlink"><title>공유 버튼</title><desc id="share-description">공유 버튼</desc><path fill-rule="evenodd" d="M16 5.5a1.5 1.5 0 1 1 3 0 1.5 1.5 0 0 1-3 0zM17.5 2a3.5 3.5 0 0 0-3.393 4.363L8.866 9.421a3.5 3.5 0 1 0 0 5.159l5.241 3.057a3.5 3.5 0 1 0 1.027-1.716l-5.241-3.058a3.507 3.507 0 0 0 0-1.726l5.241-3.058A3.5 3.5 0 1 0 17.5 2zM16 18.5a1.5 1.5 0 1 1 3 0 1.5 1.5 0 0 1-3 0zm-9.5-8a1.5 1.5 0 1 0 0 3 1.5 1.5 0 0 0 0-3z" clip-rule="evenodd"></path></svg>