<svg class="uitk-icon uitk-icon-small" aria-describedby="header-menu-account_circle-description" aria-label="탐색 메뉴" role="img" viewBox="0 0 24 24" xmlns="http://www.w3.org/2000/svg" xmlns:xlink="http://www.w3.org/1999/xlink"><title>탐색 메뉴</title><desc id="header-menu-account_circle-description">탐색 메뉴</desc><path fill-rule="evenodd" d="M11.94 6a4 4 0 1 0 0 8 4 4 0 0 0 0-8zm-2 4a2 2 0 1 1 4 0 2 2 0 0 1-4 0z" clip-rule="evenodd"></path><path fill-rule="evenodd" d="M12 2C6.477 2 2 6.477 2 12s4.477 10 10 10 10-4.477 10-10S17.523 2 12 2zM4 12a8 8 0 1 1 13.779 5.532A7.977 7.977 0 0 0 11.939 15a7.976 7.976 0 0 0-5.779 2.468A7.972 7.972 0 0 1 4 12zm3.704 6.75A7.963 7.963 0 0 0 12 20c1.55 0 2.996-.44 4.221-1.203A5.983 5.983 0 0 0 11.94 17c-1.653 0-3.15.669-4.236 1.75z" clip-rule="evenodd"></path></svg>