<svg fill="#227950" class="uitk-icon uitk-icon-default-theme" aria-hidden="true" viewBox="0 0 24 24" xmlns="http://www.w3.org/2000/svg" xmlns:xlink="http://www.w3.org/1999/xlink"><path d="M22.86 8.991a.484.484 0 0 0-.008-.692A15.792 15.792 0 0 0 12 4 15.792 15.792 0 0 0 1.148 8.298a.484.484 0 0 0-.008.693l.696.705a.51.51 0 0 0 .71.008A13.818 13.818 0 0 1 12 5.981c3.654 0 6.978 1.413 9.455 3.723a.51.51 0 0 0 .709-.008l.695-.705zm-4.175 4.229a.477.477 0 0 0-.009-.689A9.868 9.868 0 0 0 12 9.943c-2.572 0-4.915.98-6.676 2.588-.2.183-.2.495-.01.688l.695.704a.52.52 0 0 0 .716.011A7.894 7.894 0 0 1 12 11.924c2.025 0 3.874.76 5.275 2.01a.52.52 0 0 0 .715-.01l.695-.705zm-4.17 4.223c.189-.19.192-.5-.016-.67a3.945 3.945 0 0 0-2.5-.888c-.947 0-1.816.333-2.498.888-.208.17-.205.479-.016.67l2.163 2.19c.194.197.51.197.705 0l2.162-2.19z"></path></svg>