<svg class="uitk-icon uitk-button-toggle-icon uitk-icon-xsmall" aria-hidden="true" viewBox="0 0 24 24" xmlns="http://www.w3.org/2000/svg" xmlns:xlink="http://www.w3.org/1999/xlink"><path d="M2 5a3 3 0 0 1 3-3h14a3 3 0 0 1 3 3v6a3 3 0 0 1-2.502 2.959c-.273.045-.498-.183-.498-.459v-1c0-.276.237-.49.48-.622A1 1 0 0 0 20 11V5a1 1 0 0 0-1-1H5a1 1 0 0 0-1 1v6a1 1 0 0 0 .52.878c.243.132.48.346.48.622v1c0 .276-.226.504-.498.459A3 3 0 0 1 2 11V5z"></path><path d="M6 11.5a.5.5 0 0 0 .5.5h11a.5.5 0 0 0 .5-.5v-1a.5.5 0 0 0-.5-.5h-11a.5.5 0 0 0-.5.5v1zM7 16v-1.5a.5.5 0 0 1 .5-.5h1a.5.5 0 0 1 .5.5V16a4 4 0 0 1-3.501 3.97c-.274.033-.499-.194-.499-.47v-1c0-.276.227-.494.495-.562A2 2 0 0 0 7 16zm9.5-2a.5.5 0 0 1 .5.5V16a2 2 0 0 0 1.505 1.938c.268.068.495.286.495.562v1c0 .276-.225.503-.499.47A4 4 0 0 1 15 16v-1.5a.5.5 0 0 1 .5-.5h1zm-5 7a.5.5 0 0 1-.5-.5v-6a.5.5 0 0 1 .5-.5h1a.5.5 0 0 1 .5.5v6a.5.5 0 0 1-.5.5h-1zM17 6a1 1 0 1 0 0 2 1 1 0 0 0 0-2z"></path></svg>