<svg class="uitk-icon uitk-button-toggle-icon uitk-icon-xsmall" aria-hidden="true" viewBox="0 0 24 24" xmlns="http://www.w3.org/2000/svg" xmlns:xlink="http://www.w3.org/1999/xlink"><path fill-rule="evenodd" d="M5.292 3a2.292 2.292 0 0 0-1.639 3.894l6.917 7.074c.06.062.125.12.191.172.14.111.239.272.239.45v3.91a.5.5 0 0 1-.5.5h-4a.5.5 0 0 0-.5.5v1a.5.5 0 0 0 .5.5h11a.5.5 0 0 0 .5-.5v-1a.5.5 0 0 0-.5-.5h-4a.5.5 0 0 1-.5-.5v-3.91c0-.178.098-.339.239-.45.066-.052.13-.11.191-.172l6.917-7.074A2.292 2.292 0 0 0 18.708 3H5.292zM5 5.292C5 5.13 5.13 5 5.292 5h13.416a.292.292 0 0 1 .209.496L17.446 7H6.554l-1.47-1.504A.292.292 0 0 1 5 5.292zM8.51 9l2.786 2.85a.5.5 0 0 0 .357.15h.694a.5.5 0 0 0 .357-.15L15.49 9H8.51z" clip-rule="evenodd"></path></svg>