<svg class="uitk-icon uitk-button-toggle-icon uitk-icon-xsmall" aria-hidden="true" viewBox="0 0 24 24" xmlns="http://www.w3.org/2000/svg" xmlns:xlink="http://www.w3.org/1999/xlink"><path fill-rule="evenodd" d="M1 7a3 3 0 0 1 3-3h12.063a3 3 0 0 1 2.305 1.08l3.937 4.724a3 3 0 0 1 .695 1.92V15a3 3 0 0 1-2.005 2.83A3 3 0 1 1 15 18H9a3 3 0 1 1-5.995-.17A3.001 3.001 0 0 1 1 15V7zm7.236 9h7.528c.55-.614 1.348-1 2.236-1 .877 0 1.667.377 2.215.977A1 1 0 0 0 21 15v-3H3v3a1 1 0 0 0 .785.977A2.992 2.992 0 0 1 6 15c.888 0 1.687.386 2.236 1zm8.595-9.64L19.865 10H15V6h1.063a1 1 0 0 1 .768.36zM9 10h4V6H9v4zM7 6H4a1 1 0 0 0-1 1v3h4V6zm10 12a1 1 0 1 1 2 0 1 1 0 0 1-2 0zM6 17a1 1 0 1 0 0 2 1 1 0 0 0 0-2z" clip-rule="evenodd"></path></svg>