<svg class="uitk-icon uitk-button-toggle-icon uitk-icon-xsmall" aria-hidden="true" viewBox="0 0 24 24" xmlns="http://www.w3.org/2000/svg" xmlns:xlink="http://www.w3.org/1999/xlink"><path d="M2 5a3 3 0 0 1 3-3h9a3 3 0 0 1 2.959 2.502c.045.272-.183.498-.459.498h-1c-.276 0-.49-.237-.622-.48A1 1 0 0 0 14 4H5a1 1 0 0 0-1 1v9a1 1 0 0 0 .52.878c.243.132.48.346.48.622v1c0 .276-.226.504-.498.459A3 3 0 0 1 2 14V5zm11.5 11.75a1.25 1.25 0 1 1-2.5 0 1.25 1.25 0 0 1 2.5 0zM16.75 18a1.25 1.25 0 1 0 0-2.5 1.25 1.25 0 0 0 0 2.5zM18 12.25a1.25 1.25 0 1 1-2.5 0 1.25 1.25 0 0 1 2.5 0zm-5.75 1.25a1.25 1.25 0 1 0 0-2.5 1.25 1.25 0 0 0 0 2.5z"></path><path fill-rule="evenodd" d="M7 10a3 3 0 0 1 3-3h9a3 3 0 0 1 3 3v9a3 3 0 0 1-3 3h-9a3 3 0 0 1-3-3v-9zm3-1a1 1 0 0 0-1 1v9a1 1 0 0 0 1 1h9a1 1 0 0 0 1-1v-9a1 1 0 0 0-1-1h-9z" clip-rule="evenodd"></path></svg>