<svg class="uitk-icon uitk-button-toggle-icon uitk-icon-xsmall" aria-hidden="true" viewBox="0 0 24 24" xmlns="http://www.w3.org/2000/svg" xmlns:xlink="http://www.w3.org/1999/xlink"><path fill-rule="evenodd" d="M18.06 3.146a.5.5 0 0 0-.706 0l-.708.708a.5.5 0 0 0 0 .707L18 5.914v2.258a2 2 0 0 0 .586 1.414L20 11v7a1 1 0 1 1-2 0v-3a3 3 0 0 0-3-3h-1V6a3 3 0 0 0-3-3H5a3 3 0 0 0-3 3v14a1 1 0 0 0 1 1h10a1 1 0 0 0 1-1v-6h1a1 1 0 0 1 1 1v3a3 3 0 1 0 6 0V7.5a1 1 0 0 0-.293-.707l-3.646-3.647zM4 6a1 1 0 0 1 1-1h6a1 1 0 0 1 1 1v13H4V6zm5 2.667V11h1.25a.75.75 0 0 1 .6 1.2L8.2 15.733a.667.667 0 0 1-1.2-.4V13H5.75a.75.75 0 0 1-.6-1.2L7.8 8.267a.667.667 0 0 1 1.2.4z" clip-rule="evenodd"></path></svg>