<svg class="uitk-icon uitk-button-toggle-icon uitk-icon-xsmall" aria-hidden="true" viewBox="0 0 24 24" xmlns="http://www.w3.org/2000/svg" xmlns:xlink="http://www.w3.org/1999/xlink"><path fill-rule="evenodd" d="M9 2.506a1.5 1.5 0 0 1 2.141-1.356l6.293 2.977c1.164.55 1.14 2.214-.04 2.73L11 9.654V16.5a.5.5 0 0 1-.5.5h-1a.5.5 0 0 1-.5-.5V2.506zm2 4.965 4.586-2.006L11 3.295v4.176z" clip-rule="evenodd"></path><path d="M5 17.5c0-.13.06-.349.366-.646.308-.3.807-.617 1.504-.904a.208.208 0 0 0 .13-.192V14.46a.48.48 0 0 0-.646-.458c-.083.032-.165.064-.245.097-.84.347-1.587.784-2.139 1.321-.554.54-.97 1.243-.97 2.079 0 .836.416 1.539.97 2.079.552.537 1.298.974 2.139 1.32 1.686.695 3.946 1.1 6.391 1.1s4.705-.405 6.391-1.1c.84-.346 1.587-.783 2.139-1.32.554-.54.97-1.243.97-2.08 0-.835-.416-1.538-.97-2.078-.552-.537-1.298-.974-2.139-1.32-1.45-.598-3.327-.982-5.38-1.078a.491.491 0 0 0-.511.494v1.002a.51.51 0 0 0 .487.505c1.842.093 3.46.439 4.643.926.697.287 1.196.604 1.505.904.305.297.365.515.365.646 0 .13-.06.348-.366.646-.308.3-.807.617-1.504.904-1.39.572-3.38.95-5.63.95s-4.24-.378-5.63-.95c-.697-.287-1.196-.604-1.504-.904C5.06 17.848 5 17.63 5 17.5z"></path></svg>