<svg class="uitk-icon uitk-button-toggle-icon uitk-icon-xsmall" aria-hidden="true" viewBox="0 0 24 24" xmlns="http://www.w3.org/2000/svg" xmlns:xlink="http://www.w3.org/1999/xlink"><path fill-rule="evenodd" d="M6 9a1 1 0 0 1 1-1h8a1 1 0 0 1 1 1v6a1 1 0 0 1-1 1H7a1 1 0 0 1-1-1V9zm7.5 5.5a.5.5 0 0 0 .5-.5v-.5a.5.5 0 0 0-.5-.5h-5a.5.5 0 0 0-.5.5v.5a.5.5 0 0 0 .5.5h5z" clip-rule="evenodd"></path><path d="M18 13a1 1 0 1 0 0-2 1 1 0 0 0 0 2zm1-4a1 1 0 1 1-2 0 1 1 0 0 1 2 0z"></path><path fill-rule="evenodd" d="M2 7a3 3 0 0 1 3-3h14a3 3 0 0 1 3 3v10a3 3 0 0 1-3 3H5a3 3 0 0 1-3-3V7zm3-1a1 1 0 0 0-1 1v10a1 1 0 0 0 1 1h14a1 1 0 0 0 1-1V7a1 1 0 0 0-1-1H5z" clip-rule="evenodd"></path></svg>