<svg class="uitk-icon uitk-button-toggle-icon uitk-icon-xsmall" aria-hidden="true" viewBox="0 0 24 24" xmlns="http://www.w3.org/2000/svg" xmlns:xlink="http://www.w3.org/1999/xlink"><path fill-rule="evenodd" d="M5 8a7 7 0 0 1 14 0v6h2.5a.5.5 0 0 1 .5.5v1a.5.5 0 0 1-.5.5H21v5a1 1 0 0 1-1 1H4a1 1 0 0 1-1-1v-5h-.5a.5.5 0 0 1-.5-.5v-1a.5.5 0 0 1 .5-.5H5V8zm2 6h4v-4H7v4zm6 0h4v-4h-4v4zm-8 2v4h2v-4H5zm4 0v4h2v-4H9zm4 0v4h2v-4h-2zm4 0v4h2v-4h-2zm-6-8H7a5.002 5.002 0 0 1 4-4.9V8zm2 0V3.1c2.282.463 4 2.481 4 4.9h-4z" clip-rule="evenodd"></path></svg>