<svg class="uitk-icon uitk-button-toggle-icon uitk-icon-xsmall" aria-hidden="true" viewBox="0 0 24 24" xmlns="http://www.w3.org/2000/svg" xmlns:xlink="http://www.w3.org/1999/xlink"><path fill-rule="evenodd" d="M12.5 6a3 3 0 1 1 6 0 3 3 0 0 1-6 0zm3-1a1 1 0 1 0 0 2 1 1 0 0 0 0-2zm-.328 16H8.829a3.828 3.828 0 0 1-2.707-6.535l3.05-3.05a4 4 0 0 1 5.657 0l3.05 3.05A3.828 3.828 0 0 1 15.172 21zm-6.343-2h6.343a1.828 1.828 0 0 0 1.293-3.121l-3.05-3.05a2 2 0 0 0-2.829 0l-3.05 3.05A1.828 1.828 0 0 0 8.829 19zM20.5 8a3 3 0 1 0 0 6 3 3 0 0 0 0-6zm-1 3a1 1 0 1 1 2 0 1 1 0 0 1-2 0zm-19 0a3 3 0 1 1 6 0 3 3 0 0 1-6 0zm3-1a1 1 0 1 0 0 2 1 1 0 0 0 0-2zm5-7a3 3 0 1 0 0 6 3 3 0 0 0 0-6zm-1 3a1 1 0 1 1 2 0 1 1 0 0 1-2 0z" clip-rule="evenodd"></path></svg>