<svg class="uitk-icon uitk-button-toggle-icon uitk-icon-xsmall" aria-hidden="true" viewBox="0 0 24 24" xmlns="http://www.w3.org/2000/svg" xmlns:xlink="http://www.w3.org/1999/xlink"><path fill-rule="evenodd" d="M15 6a3 3 0 1 1 6 0 3 3 0 0 1-6 0zm3-1a1 1 0 1 0 0 2 1 1 0 0 0 0-2z" clip-rule="evenodd"></path><path d="M5.5 6a.5.5 0 0 1-.5-.5v-1a.5.5 0 0 1 .5-.5h.6a8 8 0 0 1 5.658 2.343l5.162 5.162a.5.5 0 0 1-.111.79l-.91.506a.5.5 0 0 1-.596-.084L12 9.414l-3.303 3.303a.5.5 0 0 1-.596.084l-.91-.505a.5.5 0 0 1-.11-.79L10.586 8l-.243-.243A6 6 0 0 0 6.101 6h-.6zM5 15.5c-.146 0-.29.04-.414.115l-1.214.728a4.61 4.61 0 0 1-1.873.63c-.274.03-.499-.197-.499-.473v-1c0-.276.226-.495.497-.548.297-.057.584-.167.846-.324l1.214-.728a2.805 2.805 0 0 1 2.886 0l1.643.985a.806.806 0 0 0 .828 0l1.643-.985a2.805 2.805 0 0 1 2.886 0l1.643.985a.806.806 0 0 0 .828 0l1.643-.985a2.805 2.805 0 0 1 2.886 0l1.214.728c.262.157.549.267.846.324.271.053.497.272.497.548v1c0 .276-.224.503-.499.473a4.61 4.61 0 0 1-1.873-.63l-1.214-.728a.806.806 0 0 0-.828 0l-1.643.985a2.805 2.805 0 0 1-2.886 0l-1.643-.985a.806.806 0 0 0-.828 0l-1.643.985a2.805 2.805 0 0 1-2.886 0l-1.643-.985A.806.806 0 0 0 5 15.5zM5 20c-.146 0-.29.04-.414.115l-1.214.728a4.61 4.61 0 0 1-1.873.63C1.225 21.503 1 21.276 1 21v-1c0-.276.226-.495.497-.548.297-.057.584-.167.846-.324l1.214-.728a2.805 2.805 0 0 1 2.886 0l1.643.985a.806.806 0 0 0 .828 0l1.643-.985a2.805 2.805 0 0 1 2.886 0l1.643.985a.806.806 0 0 0 .828 0l1.643-.985a2.805 2.805 0 0 1 2.886 0l1.214.728c.262.157.549.267.846.324.271.053.497.272.497.548v1c0 .276-.224.503-.499.473a4.61 4.61 0 0 1-1.873-.63l-1.214-.728a.806.806 0 0 0-.828 0l-1.643.985a2.805 2.805 0 0 1-2.886 0l-1.643-.985a.806.806 0 0 0-.828 0l-1.643.985a2.805 2.805 0 0 1-2.886 0l-1.643-.985A.806.806 0 0 0 5 20z"></path></svg>