<svg class="uitk-icon uitk-button-toggle-icon uitk-icon-xsmall" aria-hidden="true" viewBox="0 0 24 24" xmlns="http://www.w3.org/2000/svg" xmlns:xlink="http://www.w3.org/1999/xlink"><path fill-rule="evenodd" d="M20 4.428c0-1.412-1.613-2.219-2.743-1.371A8.143 8.143 0 0 0 14 9.57V14a3 3 0 0 0 3 3h1v3.5a.5.5 0 0 0 .5.5h1a.5.5 0 0 0 .5-.5V4.428zm-2 .608a6.143 6.143 0 0 0-2 4.535V14a1 1 0 0 0 1 1h1V5.036z" clip-rule="evenodd"></path><path d="M4.347 3a.5.5 0 0 0-.497.45l-.515 5.152A4 4 0 0 0 7 12.988V20.5a.5.5 0 0 0 .5.5h1a.5.5 0 0 0 .5-.5v-7.512a4 4 0 0 0 3.665-4.386L12.15 3.45a.5.5 0 0 0-.498-.45h-1.005a.5.5 0 0 0-.497.55l.525 5.25a2 2 0 0 1-1.99 2.2h-1.37a2 2 0 0 1-1.99-2.2l.525-5.25A.5.5 0 0 0 5.352 3H4.347z"></path><path d="M7 3.5a.5.5 0 0 1 .5-.5h1a.5.5 0 0 1 .5.5v4a.5.5 0 0 1-.5.5h-1a.5.5 0 0 1-.5-.5v-4z"></path></svg>