 <svg class="uitk-icon uitk-button-toggle-icon uitk-icon-xsmall" aria-hidden="true" viewBox="0 0 24 24" xmlns="http://www.w3.org/2000/svg" xmlns:xlink="http://www.w3.org/1999/xlink"><path fill-rule="evenodd" d="M12.683 2.27a1 1 0 0 0-1.366 0c-2.382 2.224-3.79 5.057-4.195 7.993A10.952 10.952 0 0 0 2 9a1 1 0 0 0-1 1c0 6.075 4.925 11 11 11s11-4.925 11-11a1 1 0 0 0-1-1c-1.85 0-3.593.456-5.122 1.263-.405-2.936-1.813-5.769-4.195-7.994zm2.305 9.254C14.868 8.99 13.872 6.472 12 4.421c-1.872 2.05-2.868 4.568-2.988 7.103A11.039 11.039 0 0 1 12 15.411a11.039 11.039 0 0 1 2.988-3.887zm-4.05 7.414a9.004 9.004 0 0 1-7.876-7.876 9.004 9.004 0 0 1 7.876 7.876zm10-7.876a9.004 9.004 0 0 1-7.876 7.876 9.004 9.004 0 0 1 7.876-7.876z" clip-rule="evenodd"></path></svg>