<svg class="uitk-icon uitk-button-toggle-icon uitk-icon-xsmall" aria-hidden="true" viewBox="0 0 24 24" xmlns="http://www.w3.org/2000/svg" xmlns:xlink="http://www.w3.org/1999/xlink"><path fill-rule="evenodd" d="M4 5a3 3 0 1 1 6 0 3 3 0 0 1-6 0zm3-1a1 1 0 1 0 0 2 1 1 0 0 0 0-2zM2 18v-3h-.5a.5.5 0 0 1-.5-.5v-1a.5.5 0 0 1 .5-.5H4v-.172a3.828 3.828 0 0 1 6.536-2.707L13.414 13H22.5a.5.5 0 0 1 .5.5v1a.5.5 0 0 1-.5.5H22v3a4 4 0 0 1-4 4H6a4 4 0 0 1-4-4zm18-3H4v3a2 2 0 0 0 2 2h12a2 2 0 0 0 2-2v-3zm-9.414-2L9.12 11.536A1.828 1.828 0 0 0 6 12.828V13h4.586z" clip-rule="evenodd"></path><path d="M19 4.172V3.5a.5.5 0 0 0-.5-.5h-1a.5.5 0 0 0-.5.5v.672a3 3 0 0 0 .879 2.12l.828.83a1 1 0 0 1 .293.706V8.5a.5.5 0 0 0 .5.5h1a.5.5 0 0 0 .5-.5v-.672a3 3 0 0 0-.879-2.12l-.828-.83A1 1 0 0 1 19 4.173zm-4 2V5.5a.5.5 0 0 0-.5-.5h-1a.5.5 0 0 0-.5.5v.672a3 3 0 0 0 .879 2.12l.828.83a1 1 0 0 1 .293.706v.672a.5.5 0 0 0 .5.5h1a.5.5 0 0 0 .5-.5v-.672a3 3 0 0 0-.879-2.12l-.828-.83A1 1 0 0 1 15 6.173z"></path></svg>