<svg class="uitk-icon uitk-button-toggle-icon uitk-icon-xsmall" aria-hidden="true" viewBox="0 0 24 24" xmlns="http://www.w3.org/2000/svg" xmlns:xlink="http://www.w3.org/1999/xlink"><path d="M9 6a1 1 0 1 1-2 0 1 1 0 0 1 2 0zm2 1a1 1 0 1 0 0-2 1 1 0 0 0 0 2z"></path><path fill-rule="evenodd" d="M8 14a4 4 0 1 1 8 0 4 4 0 0 1-8 0zm4-2a2 2 0 0 0-1.414 3.414l2.828-2.828A1.994 1.994 0 0 0 12 12z" clip-rule="evenodd"></path><path fill-rule="evenodd" d="M4 5a3 3 0 0 1 3-3h10a3 3 0 0 1 3 3v14a3 3 0 0 1-3 3H7a3 3 0 0 1-3-3V5zm3-1a1 1 0 0 0-1 1v14a1 1 0 0 0 1 1h10a1 1 0 0 0 1-1V5a1 1 0 0 0-1-1H7z" clip-rule="evenodd"></path></svg>