<svg class="uitk-icon uitk-button-toggle-icon uitk-icon-xsmall" aria-hidden="true" viewBox="0 0 24 24" xmlns="http://www.w3.org/2000/svg" xmlns:xlink="http://www.w3.org/1999/xlink"><path fill-rule="evenodd" d="M15 4a3 3 0 1 1-6 0 3 3 0 0 1 6 0zm-2 0a1 1 0 1 1-2 0 1 1 0 0 1 2 0z" clip-rule="evenodd"></path><path d="M5 15.5c-.146 0-.29.04-.414.115l-1.214.728a4.61 4.61 0 0 1-1.873.63c-.274.03-.499-.197-.499-.473v-1c0-.276.226-.495.497-.548.297-.057.584-.167.846-.324l1.214-.728a2.805 2.805 0 0 1 2.886 0l1.643.985a.806.806 0 0 0 .828 0l1.643-.985a2.805 2.805 0 0 1 2.886 0l1.643.985a.806.806 0 0 0 .828 0l1.643-.985a2.805 2.805 0 0 1 2.886 0l1.214.728c.262.157.549.267.846.324.271.053.497.272.497.548v1c0 .276-.224.503-.499.473a4.61 4.61 0 0 1-1.873-.63l-1.214-.728a.806.806 0 0 0-.828 0l-1.643.985a2.805 2.805 0 0 1-2.886 0l-1.643-.985a.806.806 0 0 0-.828 0l-1.643.985a2.805 2.805 0 0 1-2.886 0l-1.643-.985A.806.806 0 0 0 5 15.5zM5 20c-.146 0-.29.04-.414.115l-1.214.728a4.61 4.61 0 0 1-1.873.63C1.225 21.503 1 21.276 1 21v-1c0-.276.226-.495.497-.548.297-.057.584-.167.846-.324l1.214-.728a2.805 2.805 0 0 1 2.886 0l1.643.985a.806.806 0 0 0 .828 0l1.643-.985a2.805 2.805 0 0 1 2.886 0l1.643.985a.806.806 0 0 0 .828 0l1.643-.985a2.805 2.805 0 0 1 2.886 0l1.214.728c.262.157.549.267.846.324.271.053.497.272.497.548v1c0 .276-.224.503-.499.473a4.61 4.61 0 0 1-1.873-.63l-1.214-.728a.806.806 0 0 0-.828 0l-1.643.985a2.805 2.805 0 0 1-2.886 0l-1.643-.985a.806.806 0 0 0-.828 0l-1.643.985a2.805 2.805 0 0 1-2.886 0l-1.643-.985A.806.806 0 0 0 5 20zM16.5 9.622a27.127 27.127 0 0 0 5.42-1.51.493.493 0 0 0 .272-.65l-.384-.924a.508.508 0 0 0-.655-.274 24.993 24.993 0 0 1-18.306 0 .508.508 0 0 0-.655.274l-.384.924a.493.493 0 0 0 .272.65 27.212 27.212 0 0 0 5.42 1.51V12.5a.5.5 0 0 0 .5.5h1a.5.5 0 0 0 .5-.5V9.884a26.94 26.94 0 0 0 5 0V12.5a.5.5 0 0 0 .5.5h1a.5.5 0 0 0 .5-.5V9.622z"></path></svg>